<?xml version="1.0" encoding="UTF-8" standalone="no"?>
<svg width="800" height="600" viewBox="0 0 800 600" xmlns="http://www.w3.org/2000/svg">
  <style>
    .outlines {
      fill: none;
      stroke: rgba(255,255,255,0.3);
      stroke-width: 1.5;
    }
    .background {
      fill: #343a40;
    }
    .highlight {
      fill: rgba(253,126,20,0.2);
      stroke: rgba(253,126,20,0.6);
      stroke-width: 2;
    }
  </style>
  
  <!-- Background -->
  <rect class="background" width="800" height="600" />
  
  <!-- Simple Africa outline -->
  <path class="outlines" d="M460,100 C480,120 500,150 520,200 C540,250 550,300 560,340 C570,380 575,410 575,430 C575,450 570,470 560,490 C550,510 530,530 500,550 C470,570 435,580 400,580 C365,580 335,570 310,550 C285,530 265,500 250,460 C235,420 225,370 220,320 C215,270 215,230 220,200 C225,170 235,150 250,130 C265,110 285,100 310,90 C335,80 365,75 400,75 C435,75 450,80 460,100 Z" />
  
  <!-- North Africa Region -->
  <path class="highlight" d="M300,100 C330,90 370,85 410,90 C450,95 480,110 500,130 C520,150 530,175 530,200 C530,225 520,250 500,270 C480,290 450,305 410,310 C370,315 330,310 300,300 C270,290 255,275 245,255 C235,235 230,210 240,190 C250,170 270,110 300,100 Z" />
  
  <!-- West Africa Region -->
  <path class="highlight" d="M240,190 C250,170 270,150 300,130 C330,110 360,105 380,110 C400,115 415,125 425,145 C435,165 440,190 435,215 C430,240 420,260 400,275 C380,290 350,300 320,305 C290,310 265,310 245,300 C225,290 215,270 215,250 C215,230 225,210 240,190 Z" />
  
  <!-- East Africa Region -->
  <path class="highlight" d="M400,275 C420,260 445,250 475,245 C505,240 535,245 560,260 C585,275 605,295 615,320 C625,345 625,370 615,395 C605,420 585,440 560,455 C535,470 505,475 475,470 C445,465 420,455 400,440 C380,425 365,405 355,380 C345,355 345,330 355,305 C365,280 380,290 400,275 Z" />
  
  <!-- Southern Africa Region -->
  <path class="highlight" d="M355,380 C365,355 380,335 400,325 C420,315 440,315 460,325 C480,335 495,355 505,380 C515,405 515,430 505,455 C495,480 480,500 460,510 C440,520 420,520 400,510 C380,500 365,480 355,455 C345,430 345,405 355,380 Z" />
</svg>